<svg xmlns="http://www.w3.org/2000/svg" width="60" height="60" viewBox="0 0 60 60"><path d="M34.53,27.363a3.448,3.448,0,0,1,1.113,2.608,3.637,3.637,0,0,1-1.113,2.666L8.1,58.887A3.672,3.672,0,0,1,5.407,60a3.672,3.672,0,0,1-2.7-1.113L1.13,57.306A3.448,3.448,0,0,1,.017,54.7,3.637,3.637,0,0,1,1.13,52.032L23.337,30,1.13,7.969A3.637,3.637,0,0,1,.017,5.3,3.637,3.637,0,0,1,1.13,2.638L2.711,1.114A3.672,3.672,0,0,1,5.407,0,3.672,3.672,0,0,1,8.1,1.114ZM25.506,57.3A3.448,3.448,0,0,1,24.393,54.7a3.637,3.637,0,0,1,1.113-2.666L47.713,30,25.506,7.968A3.637,3.637,0,0,1,24.393,5.3a3.637,3.637,0,0,1,1.113-2.666l1.582-1.523a3.75,3.75,0,0,1,5.332,0L58.9,27.363a3.448,3.448,0,0,1,1.113,2.608A3.637,3.637,0,0,1,58.9,32.637L32.419,58.887a3.75,3.75,0,0,1-5.332,0Z" transform="translate(-0.017)" fill="#3d64e1"/></svg>