<svg xmlns="http://www.w3.org/2000/svg" width="50" height="50" viewBox="0 0 50 50"><path d="M25,0A24,24,0,0,1,37.549,3.437a25.205,25.205,0,0,1,9.1,9.326A25.554,25.554,0,0,1,50,25.626a25.327,25.327,0,0,1-4.769,15.065,24.541,24.541,0,0,1-12.321,9.26,1.431,1.431,0,0,1-1.3-.233,1.319,1.319,0,0,1-.424-1q0-.1.017-2.553t.017-4.487a6.025,6.025,0,0,0-1.693-4.738,21.856,21.856,0,0,0,3.336-.6,13.11,13.11,0,0,0,3.06-1.3,9.138,9.138,0,0,0,2.636-2.22,10.449,10.449,0,0,0,1.725-3.5,17.223,17.223,0,0,0,.669-5.021,10.023,10.023,0,0,0-2.572-6.874,9.089,9.089,0,0,0-.261-6.807,4.166,4.166,0,0,0-2.636.367,17.4,17.4,0,0,0-2.994,1.468l-1.238.8a22.96,22.96,0,0,0-12.5,0q-.521-.367-1.383-.9a19.363,19.363,0,0,0-2.717-1.286,4.38,4.38,0,0,0-2.767-.451,9.089,9.089,0,0,0-.261,6.807,10.023,10.023,0,0,0-2.572,6.873A17.067,17.067,0,0,0,9.715,29.3a10.793,10.793,0,0,0,1.711,3.5,8.877,8.877,0,0,0,2.621,2.235,13.044,13.044,0,0,0,3.06,1.3,21.941,21.941,0,0,0,3.336.6,5.691,5.691,0,0,0-1.594,3.437,6.4,6.4,0,0,1-1.465.5,8.884,8.884,0,0,1-1.856.167,3.786,3.786,0,0,1-2.132-.718,5.819,5.819,0,0,1-1.807-2.086A5.328,5.328,0,0,0,10.01,36.5,4.716,4.716,0,0,0,8.4,35.7l-.651-.1a2.078,2.078,0,0,0-.944.149q-.261.149-.162.384a1.845,1.845,0,0,0,.293.467,2.419,2.419,0,0,0,.424.4l.228.167A3.95,3.95,0,0,1,9,38.438a8.406,8.406,0,0,1,1.025,1.7l.325.767a4.226,4.226,0,0,0,1.432,2.052,5.016,5.016,0,0,0,2.181,1,13.442,13.442,0,0,0,2.263.233,9.466,9.466,0,0,0,1.807-.117l.749-.134q0,1.268.017,2.953t.017,1.818a1.319,1.319,0,0,1-.424,1,1.431,1.431,0,0,1-1.3.233,24.533,24.533,0,0,1-12.321-9.26A25.325,25.325,0,0,1,0,25.626,25.554,25.554,0,0,1,3.353,12.763a25.205,25.205,0,0,1,9.1-9.326A24,24,0,0,1,25,0ZM9.472,36.8q.1-.233-.228-.4-.325-.1-.424.067-.1.233.228.4Q9.342,37.072,9.472,36.8Zm1.01,1.135q.228-.167-.065-.534-.325-.3-.521-.1-.228.167.065.534Q10.286,38.173,10.482,37.939Zm.976,1.5q.293-.233,0-.634-.261-.434-.553-.2-.293.167,0,.6T11.458,39.441Zm1.367,1.4q.261-.268-.131-.634-.39-.4-.651-.1-.293.268.131.634Q12.564,41.143,12.825,40.842Zm1.856.834q.1-.367-.424-.534-.489-.134-.618.233t.424.5Q14.551,42.078,14.681,41.677Zm2.051.167q0-.434-.553-.367-.521,0-.521.367,0,.434.553.367Q16.732,42.211,16.732,41.843Zm1.887-.333q-.065-.367-.586-.3-.521.1-.456.5t.586.268q.521-.134.456-.467Z" fill="#3d64e1"/></svg>