<svg xmlns="http://www.w3.org/2000/svg" width="52" height="52" viewBox="0 0 52 52"><path d="M8.024,43.537h7.82v-23.5H8.024ZM16.352,12.8a4,4,0,0,0-1.219-2.912,4.328,4.328,0,0,0-3.149-1.151,4.508,4.508,0,0,0-3.2,1.151A3.8,3.8,0,0,0,7.55,12.8a3.876,3.876,0,0,0,1.2,2.895,4.3,4.3,0,0,0,3.131,1.167h.033a4.454,4.454,0,0,0,3.217-1.169A3.849,3.849,0,0,0,16.352,12.8Zm19.8,30.739h7.82V30.063q0-5.213-2.471-7.888A8.472,8.472,0,0,0,34.972,19.5,7.868,7.868,0,0,0,27.9,23.461h.068V20.042H20.142q.1,2.235,0,23.5h7.82V30.4a5.606,5.606,0,0,1,.237-1.9,5.242,5.242,0,0,1,1.524-2.015,3.82,3.82,0,0,1,2.5-.829q3.927,0,3.927,5.316V43.536ZM52,9.75v32.5A9.765,9.765,0,0,1,42.249,52H9.75a9.394,9.394,0,0,1-6.89-2.86A9.384,9.384,0,0,1,0,42.25V9.75A9.4,9.4,0,0,1,2.86,2.86,9.383,9.383,0,0,1,9.75,0h32.5a9.394,9.394,0,0,1,6.89,2.86A9.384,9.384,0,0,1,52,9.75Z" fill="#3d64e1"/></svg>