<svg xmlns="http://www.w3.org/2000/svg" width="50" height="50" viewBox="0 0 50 50"><path d="M50,8.85a16.555,16.555,0,0,1-1.867,3.21,14.785,14.785,0,0,1-3.372,3.412q.056.535.083,1A42.9,42.9,0,0,1,42.7,30.422c-2.581,7.723-6.533,13.94-12.179,18.16-5.888,4.053-12.746,4.915-19.064,4.18A19.948,19.948,0,0,1,0,47.445c5.718.82,11.054-1.513,15.274-5.285-4.686.142-8.092-3.925-9.7-8.628a5.461,5.461,0,0,0,2.174.133,17.064,17.064,0,0,0,2.453-.4,12.083,12.083,0,0,1-6.968-6.488,16.345,16.345,0,0,1-1.171-6.153,8.653,8.653,0,0,0,4.626,1.672A15.01,15.01,0,0,1,2.146,13.43,19.293,19.293,0,0,1,3.4,5.437c3.483,4.595,7.392,8.375,11.9,10.7a21.186,21.186,0,0,0,9.336,2.342,17.621,17.621,0,0,1,1.254-9.5,11.12,11.12,0,0,1,6.437-5.618C36.01,2.23,39.6,3.83,41.861,6.909a15.334,15.334,0,0,0,6.633-2.943c-.79,2.87-2.328,5.725-4.571,7.09A25.532,25.532,0,0,0,50,8.849Z" transform="translate(0 -3)" fill="#3d64e1"/></svg>