<svg xmlns="http://www.w3.org/2000/svg" width="60" height="60" viewBox="0 0 60 60"><g transform="translate(-2.247 -2.25)"><path d="M46.363,3.5a4.285,4.285,0,0,1,6.059,0l8.571,8.571a4.286,4.286,0,0,1,0,6.059L22.423,56.706a4.286,4.286,0,0,1-1.672,1.036L7.894,62.028a4.286,4.286,0,0,1-5.426-5.421L6.753,43.75a4.286,4.286,0,0,1,1.036-1.676L46.359,3.5Zm3.03,3.03,8.571,8.571L19.395,53.678,6.538,57.964l4.286-12.857Z" fill="#3d64e1" fill-rule="evenodd"/><path d="M53.78,23.574,40.925,10.719l3.641-3.641L57.421,19.933l-3.636,3.641ZM6.75,42.323v2.571a2.571,2.571,0,0,0,2.571,2.571h2.571v2.571a2.571,2.571,0,0,0,2.571,2.571h2.571v2.571a2.571,2.571,0,0,0,2.571,2.571h2.571V50.037a2.571,2.571,0,0,0-2.571-2.571H17.034V44.894a2.571,2.571,0,0,0-2.571-2.571Z" transform="translate(0 0)" fill="#3d64e1" fill-rule="evenodd"/></g></svg>