<svg xmlns="http://www.w3.org/2000/svg" width="60" height="60" viewBox="0 0 60 60"><path d="M23.968,8.807A16.516,16.516,0,0,0,13.11,12.748,16.435,16.435,0,0,0,7.239,22.48H.322A23.739,23.739,0,0,1,8.284,7.842,22.811,22.811,0,0,1,23.968,1.89,23.241,23.241,0,0,1,41.019,8.968L48.1,1.89V22.48H27.507l8.686-8.686A16.971,16.971,0,0,0,23.968,8.807ZM43.432,40.174,60,56.9,54.853,61.89,38.284,45.322a23.821,23.821,0,0,1-14.316,4.665,22.715,22.715,0,0,1-16.89-7.078L0,49.987V29.4H20.59L11.9,38.083A16.434,16.434,0,0,0,23.968,43.07a16.631,16.631,0,0,0,10.938-3.861A17.073,17.073,0,0,0,40.858,29.4h6.917a23.2,23.2,0,0,1-4.343,10.777Z" transform="translate(0 -1.89)" fill="#3d64e1"/></svg>